<?xml version="1.0" encoding="UTF-8"?>
<!DOCTYPE svg PUBLIC "-//W3C//DTD SVG 1.1//EN" "http://www.w3.org/Graphics/SVG/1.1/DTD/svg11.dtd">
<!-- Creator: CorelDRAW 2018 (64-Bit) -->
<svg xmlns="http://www.w3.org/2000/svg" xml:space="preserve" width="159mm" height="159mm" version="1.1" style="shape-rendering:geometricPrecision; text-rendering:geometricPrecision; image-rendering:optimizeQuality; fill-rule:evenodd; clip-rule:evenodd"
viewBox="0 0 15900 15900"
 xmlns:xlink="http://www.w3.org/1999/xlink">
 <defs>
  <style type="text/css">
   <![CDATA[
    .fil4 {fill:#D43362}
    .fil3 {fill:#D56353}
    .fil0 {fill:#D5BA1C}
    .fil5 {fill:#D71E78}
    .fil1 {fill:#D79E30}
    .fil6 {fill:#D90B8A}
    .fil2 {fill:#D97C40}
   ]]>
  </style>
 </defs>
 <g id="Слой_x0020_1">
  <metadata id="CorelCorpID_0Corel-Layer"/>
  <g id="_1922824174560">
   <path class="fil0" d="M1014 4091.9l13872 0c-183.95,-316.17 -338.52,-556.93 -540.19,-840.32 -289.86,-407.32 -774.08,-934.63 -1153.79,-1255.13l-571.36 -460.51c-2702.88,-1918.06 -6111.57,-2046.1 -8935.04,-280.82 -297.46,185.97 -520.46,370.56 -793.82,581.22 -77.14,59.44 -107.19,95.44 -183.82,160.11 -74.68,63.04 -118.49,81.21 -186.01,159.05 -108.02,124.53 -230.02,253.79 -340.83,346.74 -124.22,104.2 -538.22,624.65 -626.95,749.34 -201.67,283.39 -356.24,524.15 -540.19,840.32z"/>
   <path class="fil1" d="M14886 4091.9l-13872 0c-271.39,422.72 -759.31,1633.5 -830.6,2206l15524.68 0c-62.77,-572.5 -550.69,-1783.28 -822.08,-2206z"/>
   <path class="fil2" d="M167.17 6359.63c-82.17,744.08 -138.25,683.78 -159.31,1597.53l15884.29 0c-13.86,-600.88 -77.99,-1029.73 -135.85,-1597.48l-15589.13 -0.05z"/>
   <path class="fil3" d="M15.04 8190.63c6.93,330.44 50,775.1 108.82,1104.25 10.33,57.76 18.56,126.82 30.46,181.36 26.89,123.27 -4.91,80.81 68.77,129.98l15453.82 0c73.71,-49.18 50.75,-35.35 72.49,-152.72 74.2,-400.61 127.15,-861.42 135.57,-1262.87 -616.79,-42.73 -1375.23,-4.87 -2007.48,-4.87l-11881.44 0c-624.02,0 -1372.2,-37.31 -1981.01,4.87z"/>
   <path class="fil4" d="M287.74 10024.86c124.35,465.91 282.31,813.45 439.93,1234.53l14444.65 -0.59c157.63,-420.49 315.59,-768.03 440.36,-1237.26l-15324.94 3.32z"/>
   <path class="fil5" d="M1044.4 11843.62l351.15 574.38c83.17,121 295.68,463.24 415.26,510.88l12278.38 0c119.58,-47.64 332.1,-389.88 415.26,-510.88 115.25,-167.67 264.87,-380.29 351.15,-574.38l-13811.2 0z"/>
   <path class="fil6" d="M2475.9 13678.9c43.52,84.26 441.88,408.31 552.69,493.28 87.91,67.42 500.92,410.34 634.56,410.34l8573.7 0c178.41,0 1131.79,-797.99 1190.79,-903.62l-10951.74 0z"/>
   <path class="fil6" d="M5566.5 15504.19c413.94,233.8 1777.64,385.78 2383.5,385.78 605.87,0 1969.56,-151.98 2374.97,-385.78l-4758.47 0z"/>
  </g>
 </g>
</svg>
